<svg xmlns="http://www.w3.org/2000/svg" width="748" height="498.906" viewBox="0 0 748 498.906"><defs><style>.a,.c,.z{fill:#fff;}.b,.d,.x{fill:#2a2e30;}.b{font-size:18px;}.b,.x,.z{font-family:-apple-system, BlinkMacSystemFont, "Segoe UI", Roboto, Oxygen, Ubuntu, Cantarell, "Fira Sans", "Droid Sans", "Helvetica Neue", Arial, sans-serif, "Apple Color Emoji", "Segoe UI Emoji", "Segoe UI Symbol";font-weight:600;}.c,.w{stroke:#ddd;}.d,.x,.z{font-size:16px;}.d{font-family:-apple-system, BlinkMacSystemFont, "Segoe UI", Roboto, Oxygen, Ubuntu, Cantarell, "Fira Sans", "Droid Sans", "Helvetica Neue", Arial, sans-serif, "Apple Color Emoji", "Segoe UI Emoji", "Segoe UI Symbol";}.e{fill:#68cbf6;}.f{fill:#348fd6;}.g{fill:#46d6db;}.h{fill:#8ed892;}.i{fill:#fec32d;}.j{fill:#fd9f28;}.k{fill:#fd8a6a;}.l{fill:#fd82ab;}.m{fill:#95bdf8;}.n{fill:#b49ae6;}.o{fill:#dc7eed;}.p{fill:#b0bec5;}.q{fill:#717e88;}.r{fill:#38474f;}.s{fill:#b6a6a0;}.t{fill:#8c6e64;}.u{opacity:0.173;}.v{fill:rgba(0,0,0,0);}.ac,.w{fill:none;}.y{fill:#40b771;}.aa,.ab{stroke:none;}.ab{fill:#ddd;}</style></defs><g transform="translate(-1423 -319.094)"><g class="a" transform="translate(1423 319.094)"><path class="aa" d="M 742 498.4063110351562 L 6 498.4063110351562 C 2.967272758483887 498.4063110351562 0.5 495.9714965820312 0.5 492.9786682128906 L 0.5 5.927579402923584 C 0.5 2.934852361679077 2.967272758483887 0.5000340938568115 6 0.5000340938568115 L 376.4201049804688 0.5000340938568115 L 742 0.5000340938568115 C 745.03271484375 0.5000340938568115 747.5 2.934852361679077 747.5 5.927579402923584 L 747.5 492.9786682128906 C 747.5 495.9714965820312 745.03271484375 498.4063110351562 742 498.4063110351562 Z"/><path class="ab" d="M 6 1.000030517578125 C 3.24298095703125 1.000030517578125 1 3.21051025390625 1 5.9276123046875 L 1 492.9786376953125 C 1 495.6957397460938 3.24298095703125 497.9062194824219 6 497.9062194824219 L 742 497.9062194824219 C 744.7570190429688 497.9062194824219 747 495.6957397460938 747 492.9786376953125 L 747 5.9276123046875 C 747 3.21051025390625 744.7570190429688 1.000030517578125 742 1.000030517578125 L 376.4201049804688 1.000030517578125 L 6 1.000030517578125 M 6 3.0517578125e-05 L 376.4201049804688 3.0517578125e-05 L 742 3.0517578125e-05 C 745.313720703125 3.0517578125e-05 748 2.653839111328125 748 5.9276123046875 L 748 492.9786376953125 C 748 496.2523193359375 745.313720703125 498.9062194824219 742 498.9062194824219 L 6 498.9062194824219 C 2.686279296875 498.9062194824219 0 496.2523193359375 0 492.9786376953125 L 0 5.9276123046875 C 0 2.653839111328125 2.686279296875 3.0517578125e-05 6 3.0517578125e-05 Z"/></g><text class="b" transform="translate(1710 378)"><tspan x="0" y="0">Create new website</tspan></text><g transform="translate(778 180)"><g class="c" transform="translate(685 390)"><rect class="aa" width="675" height="43" rx="2"/><rect class="ac" x="0.5" y="0.5" width="674" height="42" rx="1.5"/></g><text class="d" transform="translate(685 375)"><tspan x="0" y="0">Website name:</tspan></text></g><g transform="translate(0 -27)"><g class="c" transform="translate(1463 692)"><rect class="aa" width="675" height="43" rx="2"/><rect class="ac" x="0.5" y="0.5" width="674" height="42" rx="1.5"/></g><text class="d" transform="translate(1463 677)"><tspan x="0" y="0">Author name:</tspan><tspan x="0" y="19"></tspan></text></g><g transform="translate(1483 432)"><path class="e" d="M18.728,1.7,1.706,18.724a68.37,68.37,0,0,1-.37-16.57.935.935,0,0,1,.82-.82A65.019,65.019,0,0,1,8.942,1,65.878,65.878,0,0,1,18.728,1.7ZM47.67,27.838,27.844,47.662c-6.058-1.316-12.312-3.842-16.986-8.516S3.656,28.23,2.34,22.162L22.166,2.338c6.06,1.316,12.314,3.842,16.988,8.516S46.356,21.78,47.67,27.838ZM35.312,26.65A1.471,1.471,0,0,0,34,26.12a1.606,1.606,0,0,0-.924.46l-2.226,2.228-1.8-1.8,2.252-2.25a1.5,1.5,0,0,0,.368-1.524,1.19,1.19,0,0,0-.092-.218,1.5,1.5,0,0,0-1.546-.808,1.54,1.54,0,0,0-.878.45l-2.226,2.226-1.8-1.8,2.262-2.262a1.493,1.493,0,0,0,.368-1.522,1.353,1.353,0,0,0-.368-.6,1.506,1.506,0,0,0-1.306-.416,1.6,1.6,0,0,0-.842.45L23.01,20.962l-1.8-1.8,2.25-2.25a1.5,1.5,0,0,0,.368-1.524,1.19,1.19,0,0,0-.092-.218,1.5,1.5,0,0,0-1.546-.808,1.546,1.546,0,0,0-.878.45l-2.226,2.226L17.378,15.33a1.437,1.437,0,0,0-2.032,2.032l1.708,1.708L14.8,21.32a1.5,1.5,0,0,0-.37,1.522,1.214,1.214,0,0,0,.094.22,1.5,1.5,0,0,0,1.546.808,1.547,1.547,0,0,0,.876-.45l2.228-2.228,1.788,1.8-2.25,2.25a1.5,1.5,0,0,0-.368,1.524,1.065,1.065,0,0,0,.092.218,1.5,1.5,0,0,0,1.546.808,1.535,1.535,0,0,0,.876-.45l2.228-2.226,1.788,1.8-2.25,2.25a1.494,1.494,0,0,0-.368,1.522,1.083,1.083,0,0,0,.092.22,1.507,1.507,0,0,0,1.546.808,1.546,1.546,0,0,0,.878-.45L27,29.038l1.8,1.8-2.25,2.25a1.533,1.533,0,0,0-.37,1.512,1.489,1.489,0,0,0,1.674,1.026,1.56,1.56,0,0,0,.842-.45l2.228-2.238,1.708,1.708a1.435,1.435,0,1,0,2.03-2.03l-1.708-1.708,2.216-2.216A1.564,1.564,0,0,0,35.312,26.65Zm12.982,4.616L31.272,48.3a65.878,65.878,0,0,0,9.786.7,64.809,64.809,0,0,0,6.786-.334.935.935,0,0,0,.82-.82A68.449,68.449,0,0,0,48.294,31.266Z"/></g><g transform="translate(-2 63)"><path class="e" d="M12,0A12,12,0,1,1,0,12,12,12,0,0,1,12,0Z" transform="translate(1621 365)"/><path class="f" d="M12,0A12,12,0,1,1,0,12,12,12,0,0,1,12,0Z" transform="translate(1654 365)"/><path class="g" d="M12,0A12,12,0,1,1,0,12,12,12,0,0,1,12,0Z" transform="translate(1687 365)"/><path class="h" d="M12,0A12,12,0,1,1,0,12,12,12,0,0,1,12,0Z" transform="translate(1720 365)"/><path class="i" d="M12,0A12,12,0,1,1,0,12,12,12,0,0,1,12,0Z" transform="translate(1753 365)"/><path class="j" d="M12,0A12,12,0,1,1,0,12,12,12,0,0,1,12,0Z" transform="translate(1786 365)"/><path class="k" d="M12,0A12,12,0,1,1,0,12,12,12,0,0,1,12,0Z" transform="translate(1819 365)"/><path class="l" d="M12,0A12,12,0,1,1,0,12,12,12,0,0,1,12,0Z" transform="translate(1852 365)"/><path class="m" d="M12,0A12,12,0,1,1,0,12,12,12,0,0,1,12,0Z" transform="translate(1885 365)"/><path class="n" d="M12,0A12,12,0,1,1,0,12,12,12,0,0,1,12,0Z" transform="translate(1918 365)"/><path class="o" d="M12,0A12,12,0,1,1,0,12,12,12,0,0,1,12,0Z" transform="translate(1951 365)"/><path class="p" d="M12,0A12,12,0,1,1,0,12,12,12,0,0,1,12,0Z" transform="translate(1984 365)"/><path class="q" d="M12,0A12,12,0,1,1,0,12,12,12,0,0,1,12,0Z" transform="translate(2017 365)"/><path class="r" d="M12,0A12,12,0,1,1,0,12,12,12,0,0,1,12,0Z" transform="translate(2050 365)"/><path class="s" d="M12,0A12,12,0,1,1,0,12,12,12,0,0,1,12,0Z" transform="translate(2083 365)"/><path class="t" d="M12,0A12,12,0,1,1,0,12,12,12,0,0,1,12,0Z" transform="translate(2116 365)"/></g><g class="u" transform="translate(-2 63)"><g transform="translate(1725.039 619)"><path d="M7.648,1.264,1.265,7.646a25.639,25.639,0,0,1-.139-6.214.351.351,0,0,1,.307-.307A24.382,24.382,0,0,1,3.978,1,24.7,24.7,0,0,1,7.648,1.264Zm10.853,9.8L11.066,18.5A12.713,12.713,0,0,1,4.7,15.3,12.694,12.694,0,0,1,1.5,8.936L8.937,1.5A12.712,12.712,0,0,1,15.308,4.7,12.7,12.7,0,0,1,18.5,11.064Zm-4.634-.445a.552.552,0,0,0-.493-.2.6.6,0,0,0-.346.172l-.835.835-.676-.675.844-.844a.561.561,0,0,0,.138-.571.446.446,0,0,0-.035-.082.563.563,0,0,0-.58-.3.577.577,0,0,0-.329.169l-.835.835-.675-.675.848-.848a.56.56,0,0,0,.138-.571.507.507,0,0,0-.138-.225.565.565,0,0,0-.49-.156.6.6,0,0,0-.316.169l-.835.835-.675-.675.844-.844A.561.561,0,0,0,9.56,6.4a.446.446,0,0,0-.035-.082.563.563,0,0,0-.58-.3.58.58,0,0,0-.329.169l-.835.835-.64-.64a.539.539,0,0,0-.762.762l.64.64-.844.844a.562.562,0,0,0-.139.571.455.455,0,0,0,.035.082.564.564,0,0,0,.58.3.58.58,0,0,0,.328-.169l.835-.835.67.675-.844.844a.561.561,0,0,0-.138.571.4.4,0,0,0,.034.082.564.564,0,0,0,.58.3.575.575,0,0,0,.328-.169l.835-.835.67.675-.844.844a.56.56,0,0,0-.138.571.406.406,0,0,0,.034.082.565.565,0,0,0,.58.3.58.58,0,0,0,.329-.169l.835-.835.675.675-.844.844a.575.575,0,0,0-.139.567.559.559,0,0,0,.628.385.585.585,0,0,0,.316-.169l.835-.839.64.64a.538.538,0,1,0,.761-.761l-.64-.64.831-.831A.586.586,0,0,0,13.867,10.619Zm4.868,1.731-6.383,6.386a24.7,24.7,0,0,0,3.67.264,24.3,24.3,0,0,0,2.545-.125.351.351,0,0,0,.307-.307A25.668,25.668,0,0,0,18.735,12.35Z" transform="translate(195 -213)"/></g><g transform="translate(2031.039 621)"><path d="M2.385,18.5H17.615A1.378,1.378,0,0,0,19,17.125V9.5H1v7.625A1.378,1.378,0,0,0,2.385,18.5ZM17.615,4.75h-.347V4.406a.345.345,0,0,0-.346-.344H15.539a.346.346,0,0,0-.346.344V4.75H13.981V3.375A1.384,1.384,0,0,0,12.6,2H7.4A1.384,1.384,0,0,0,6.019,3.375V4.75H4.808V4.406a.346.346,0,0,0-.347-.344H3.077a.345.345,0,0,0-.346.344V4.75H2.385A1.378,1.378,0,0,0,1,6.125V8H19V6.125A1.378,1.378,0,0,0,17.615,4.75Zm-4.847,0H7.231v-1.2A.346.346,0,0,1,7.577,3.2h4.847a.346.346,0,0,1,.346.344Z" transform="translate(-276 -215)"/></g><g transform="translate(2494.039 709)"><path d="M20.231,17.569c0,.789.1,1.431-.241,1.431H15.856c-.322,0-.241-.666-.241-1.184C17.923,17.816,20.231,17.569,20.231,17.569Zm-18.462,0c0,.838-.014,1.431.288,1.431H6.144c.3,0,.241-.652.241-1.184C4.082,17.816,1.769,17.569,1.769,17.569ZM21,12.733v3.75a.394.394,0,0,1-.3.385c-.716.167-2.99.5-9.7.5s-8.986-.336-9.7-.5a.394.394,0,0,1-.3-.385v-3.75C1,10.8,2.154,9.684,3.308,8.549,4.038,6.931,5.663,4,8.115,4h5.77c2.452,0,4.144,3.029,4.807,4.549A5.373,5.373,0,0,1,21,12.733ZM4.846,8.638H17.154c0-.493-1.034-3.454-2.981-3.454H7.827C6.144,5.184,4.846,8.145,4.846,8.638Zm.769,5.018a1.539,1.539,0,1,0-1.538,1.579A1.557,1.557,0,0,0,5.615,13.656Zm8.847.015a.782.782,0,0,0-.769-.789H8.308a.79.79,0,0,0,0,1.579h5.385A.783.783,0,0,0,14.462,13.671Zm5,0a1.539,1.539,0,1,0-1.538,1.579A1.557,1.557,0,0,0,19.462,13.671Z" transform="translate(-509 -304)"/></g><g transform="translate(2586.039 622)"><path d="M1,15.572a1.289,1.289,0,0,0,1.286,1.285H17.715A1.289,1.289,0,0,0,19,15.572V9.143H1Zm5.705-1.929h6.589a.563.563,0,0,1,0,1.125H6.705a.563.563,0,1,1,0-1.125Zm-2.893,0h.482a.563.563,0,0,1,0,1.125H3.813a.563.563,0,0,1,0-1.125ZM19,5.286V7.214H1V5.286A1.289,1.289,0,0,1,2.286,4H17.715A1.289,1.289,0,0,1,19,5.286Z" transform="translate(-501 -216)"/></g><g transform="translate(2051.039 406)"><path d="M12.25,4.635v-3.3A.336.336,0,0,1,12.587,1a1.47,1.47,0,0,1,.941.337L17.012,4.23A1.346,1.346,0,0,1,17.5,5.273a.225.225,0,0,1-.228.227H13.117A.866.866,0,0,1,12.25,4.635Zm-1.5.115V1H5.421A1.435,1.435,0,0,0,4,2.44V17.56A1.435,1.435,0,0,0,5.421,19H16.079A1.435,1.435,0,0,0,17.5,17.56V7H13A2.447,2.447,0,0,1,10.75,4.75Z"/></g><path d="M17.514,10A2.316,2.316,0,0,1,19,7.837a9.161,9.161,0,0,0-1.111-2.675,2.347,2.347,0,0,1-.943.2,2.31,2.31,0,0,1-2.113-3.252A9.151,9.151,0,0,0,12.161,1,2.314,2.314,0,0,1,7.839,1,9.161,9.161,0,0,0,5.163,2.111,2.311,2.311,0,0,1,3.048,5.363a2.273,2.273,0,0,1-.942-.2A9.38,9.38,0,0,0,1,7.842,2.312,2.312,0,0,1,2.486,10,2.319,2.319,0,0,1,1,12.163a9.183,9.183,0,0,0,1.111,2.675,2.312,2.312,0,0,1,3.051,3.051A9.229,9.229,0,0,0,7.844,19a2.31,2.31,0,0,1,4.313,0,9.178,9.178,0,0,0,2.677-1.111,2.315,2.315,0,0,1,3.052-3.051A9.241,9.241,0,0,0,19,12.163,2.327,2.327,0,0,1,17.514,10Zm-7.472,3.744a3.749,3.749,0,1,1,3.75-3.749A3.748,3.748,0,0,1,10.042,13.742Z" transform="translate(2118 406)"/><g transform="translate(3232.039 612)"><path d="M10.08,18.7l-.335.2a.1.1,0,0,1-.148-.052l-.236-.7a.1.1,0,0,1,.153-.109l.566.343A.189.189,0,0,1,10.08,18.7Zm2.1.942-.983-.59a.2.2,0,0,0-.207,0l-.974.585a.172.172,0,0,0-.083.215l.078.238s.369.9,1.082.9c.738,0,1.092-.9,1.092-.9l.079-.228A.182.182,0,0,0,12.18,19.647ZM9.039,13.2a.2.2,0,0,0,.062.06l1.894,1.137a.2.2,0,0,0,.207,0l1.893-1.137a.188.188,0,0,0,0-.324L11.2,11.8a.2.2,0,0,0-.207,0L9.1,12.933A.188.188,0,0,0,9.039,13.2Zm.844-1.617a.189.189,0,0,0-.059-.347,4.042,4.042,0,0,1-1.781-.881.208.208,0,0,0-.266-.01,2.328,2.328,0,0,1-.772.4.093.093,0,0,0-.059.119L7.4,12.243l.187.563a.1.1,0,0,0,.148.052l.344-.2Zm.2,3.167L8.186,13.609a.213.213,0,0,0-.212,0l-.1.057.718,2.157a.1.1,0,0,0,.148.052l1.338-.8A.189.189,0,0,0,10.08,14.747Zm2.612,3.277-.585.352a.188.188,0,0,0-.062.264.193.193,0,0,0,.062.06l.344.209a.1.1,0,0,0,.148-.052h0l.241-.724A.1.1,0,0,0,12.692,18.024Zm1.579-4.386-.049-.029a.2.2,0,0,0-.207,0l-1.894,1.138a.182.182,0,0,0-.009.324l1.352.814a.1.1,0,0,0,.148-.053l.7-2.086A.1.1,0,0,0,14.271,13.638Zm-.123-3.291h0a4.107,4.107,0,0,1-1.78.881.189.189,0,0,0-.059.347l1.8,1.072.364.219a.1.1,0,0,0,.148-.052l.2-.59.483-1.443a2.491,2.491,0,0,1-.886-.438A.214.214,0,0,0,14.148,10.347Zm-.88,6.31L11.2,15.424h0a.2.2,0,0,0-.207,0L8.929,16.642l-.005.005a.1.1,0,0,0,0,.152l.034.024,2.032,1.2a.2.2,0,0,0,.207,0l2.051-1.214.02-.014A.087.087,0,0,0,13.267,16.657ZM17.5,6.824a.384.384,0,0,0-.5-.005h0a2.99,2.99,0,0,1-.885.5A.1.1,0,0,1,16,7.176l.2-.271a1.879,1.879,0,0,0,.334-1.419,5.539,5.539,0,0,0-10.881.023,1.876,1.876,0,0,0,.34,1.419l.2.267a.1.1,0,0,1-.118.143,2.962,2.962,0,0,1-.988-.61.207.207,0,0,0-.256-.019A1.882,1.882,0,0,0,4,8.257a1.937,1.937,0,0,0,1.967,1.9,3.171,3.171,0,0,0,1.8-.586.2.2,0,0,1,.26.005,4.618,4.618,0,0,0,3.055.962,4.608,4.608,0,0,0,3.055-.962.206.206,0,0,1,.26-.005,3.159,3.159,0,0,0,1.8.586,1.94,1.94,0,0,0,1.968-1.909A1.881,1.881,0,0,0,17.5,6.824Z" transform="translate(-1577 -207)"/></g><path d="M18.563,15.523a8.8,8.8,0,0,1-2.411-.5,8.943,8.943,0,0,0-3.3-8.405C9.744,4.072,5.024,5.92,1.346,2.053c-.857-.9-.359,10.119,4.245,14.3a8.139,8.139,0,0,0,8.416,1.616,4.809,4.809,0,0,0,1.674-1.457,12.791,12.791,0,0,0,2.683.611c.632.077.953-1.478.2-1.595Zm-3.972.318a20.388,20.388,0,0,1-8.183-5.423.176.176,0,0,1,.238-.258A26.374,26.374,0,0,0,15.01,14.8,1.593,1.593,0,0,1,14.591,15.841Z" transform="translate(1722 406)"/><path d="M12.324,17.619c0,.017.009.031.009.047v1.667h2.5a.833.833,0,0,1,0,1.667H8.167a.833.833,0,0,1,0-1.667h2.5V17.667c0-.017.008-.031.009-.047A7.5,7.5,0,0,1,4,10.167H5.667a5.833,5.833,0,1,0,11.667,0H19A7.5,7.5,0,0,1,12.324,17.619ZM11.5,14.333a4.179,4.179,0,0,0,4.167-4.167H12.333V8.5h3.333V6.833H12.333V5.167h3.333a4.167,4.167,0,0,0-8.333,0v5A4.179,4.179,0,0,0,11.5,14.333Z" transform="translate(1853 405)"/><path d="M19.157,1.01C18.912,1.053,8.64,2.894,8.422,2.933S8,3.106,8,3.317V14.861a1.458,1.458,0,0,1-.127.563,1.373,1.373,0,0,1-.838.61c-.172.053-.406.1-.682.159C5.1,16.452,3,16.895,3,18.683a2.28,2.28,0,0,0,2.171,2.284,2.81,2.81,0,0,0,.37.033,6.461,6.461,0,0,0,2.666-.635,3.166,3.166,0,0,0,1.005-1.188A4.724,4.724,0,0,0,9.667,17.3V7.806a.373.373,0,0,1,.318-.358l7.54-1.406A.389.389,0,0,1,18,6.4v7.1c-.083.316-.364.3-.765.423-.172.053-.458.1-.734.158-1.255.26-3.353.7-3.353,2.486a2.284,2.284,0,0,0,2.177,2.322,4.619,4.619,0,0,0,1.01-.043,6.288,6.288,0,0,0,1.9-.625A2.505,2.505,0,0,0,19.667,15.9V1.38A.4.4,0,0,0,19.157,1.01Z" transform="translate(1820 405)"/><g transform="translate(3601.039 625)"><path d="M4.11,11.784l4.942,3.693a6.274,6.274,0,0,1-2.189-.682L4.875,18.665a.851.851,0,0,1-1.186.165L2.337,17.82a.835.835,0,0,1-.167-1.176l3.2-2.961A6.184,6.184,0,0,1,4.11,11.784Zm11.958.524A8.145,8.145,0,0,1,11.624,15.3L3.576,9.282A8.022,8.022,0,0,1,5.247,4.223C7.78.889,12.255,0,15.243,2.23S18.6,8.975,16.068,12.308ZM14.75,8.5a1.5,1.5,0,1,0-1.5,1.5A1.5,1.5,0,0,0,14.75,8.5Z" transform="translate(-1648 -219)"/></g><g transform="translate(1622 405)"><path class="v" d="M6.213,15.579" transform="translate(-0.869 -2.43)"/><g transform="translate(1 1)"><path d="M21.616,15.594l-6.649-1.078,2.361,6.374A9.013,9.013,0,0,0,21.616,15.594ZM19,16a1,1,0,1,1-1,1A1,1,0,0,1,19,16Z" transform="translate(-5 -4.067)"/><path d="M17.976,11.48c.011-.159.024-.318.024-.48a7.008,7.008,0,1,0-5.005,6.708l-2.773-7.485ZM14.111,6.722a1.167,1.167,0,1,1-1.167,1.167A1.167,1.167,0,0,1,14.111,6.722ZM10.222,5.556a.778.778,0,1,1-.778.778A.778.778,0,0,1,10.222,5.556ZM4.778,10.222A.778.778,0,1,1,5.556,11,.778.778,0,0,1,4.778,10.222Zm2.333,4.667a1.556,1.556,0,1,1,1.556-1.556A1.555,1.555,0,0,1,7.111,14.889ZM7.5,9.444a1.167,1.167,0,1,1,1.167,1.167A1.167,1.167,0,0,1,7.5,9.444ZM11,15.667a.778.778,0,1,1-.778-.778A.778.778,0,0,1,11,15.667Z" transform="translate(-1 -1)"/><path d="M11,1a10,10,0,1,0,3.008,19.537l-.581-1.568A8.332,8.332,0,1,1,19.333,11c0,.218-.016.433-.032.648l1.653.267c.027-.3.046-.607.046-.916A10,10,0,0,0,11,1Z" transform="translate(-1 -1)"/><path d="M17.677,21.832l.7,1.885a12.006,12.006,0,0,0,6.211-7.641L22.6,15.755A10.036,10.036,0,0,1,17.677,21.832Z" transform="translate(-5 -4)"/></g></g><path d="M21,11A10,10,0,1,0,3.046,17.038l0,0c.462.622,2.582,3.116,3.2,3.9a.143.143,0,0,0,.207.02l1.571-1.388a1.672,1.672,0,0,0,.347-2.332l-.992-1.338a1.672,1.672,0,0,0-2.332-.347l-.647.48A8.249,8.249,0,0,1,2.667,11a8.333,8.333,0,0,1,16.667,0,8.249,8.249,0,0,1-1.727,5.04l-.648-.48a1.672,1.672,0,0,0-2.332.347l-.992,1.338a1.672,1.672,0,0,0,.347,2.332l1.572,1.388a.142.142,0,0,0,.206-.02c.615-.788,2.736-3.282,3.2-3.9l0,0A9.926,9.926,0,0,0,21,11Z" transform="translate(1886 405)"/><g transform="translate(4004.039 619)"><path d="M20.583,7.269a42.978,42.978,0,0,0-4.232-3.924A5.5,5.5,0,0,0,13.383,2c-1.045,0-1.045.375-2.565.375S9.3,2,8.253,2A5.5,5.5,0,0,0,5.285,3.345,42.978,42.978,0,0,0,1.053,7.269a.185.185,0,0,0-.01.248l2.931,3a.191.191,0,0,0,.337-.117V8.3a.435.435,0,0,1,.361-.431.426.426,0,0,1,.494.417V19.625a.378.378,0,0,0,.38.375H16.091a.378.378,0,0,0,.38-.375V8.3a.435.435,0,0,1,.361-.431.426.426,0,0,1,.494.417V10.4a.19.19,0,0,0,.337.117l2.931-3A.185.185,0,0,0,20.583,7.269ZM10.818,5.7c-1.425,0-2.565-.6-2.565-1.687,0-1.406,1.14-.5,2.565-.5s2.565-.9,2.565.5C13.383,5.107,12.234,5.7,10.818,5.7Z" transform="translate(-2217 -214)"/></g><path d="M11.693,10.837A2.694,2.694,0,1,1,9,8.075,2.725,2.725,0,0,1,11.693,10.837ZM18,6.787v8.46a1.525,1.525,0,0,1-1.433,1.6h-15A1.647,1.647,0,0,1,0,15.247V6.787A1.533,1.533,0,0,1,1.572,5.312h.353V4.925A.38.38,0,0,1,2.3,4.537H3.517a.38.38,0,0,1,.374.388v.388h.194a.749.749,0,0,0,.561-.256C5.982,3.519,6.522,3,7.068,3h4.008c.547,0,1.045.519,2.375,2.049a.745.745,0,0,0,.561.263h2.555A1.408,1.408,0,0,1,18,6.787Zm-5,4.244a4.065,4.065,0,0,0-4.188-4.3,4.111,4.111,0,0,0,.374,8.211A4.063,4.063,0,0,0,13,11.031Zm1.108-3.558A.609.609,0,1,0,13.5,8.1.613.613,0,0,0,14.109,7.472Z" transform="translate(2020 406)"/><path d="M18.989,11.611v4.42a.381.381,0,0,1-.188.334l-6.116,3.581a.362.362,0,0,1-.548-.326V15.192a.381.381,0,0,1,.188-.334l6.116-3.581A.367.367,0,0,1,18.989,11.611Zm-8.755,3.238L4.118,11.32a.372.372,0,0,0-.548.334v4.369a.391.391,0,0,0,.188.334l6.116,3.581a.367.367,0,0,0,.548-.334V15.175A.388.388,0,0,0,10.235,14.849Zm11.145-6.7L11.64,2.094a.736.736,0,0,0-.728,0L1.189,7.885a.378.378,0,0,0,0,.651l9.731,5.508a.736.736,0,0,0,.728,0l8.635-5.037c.24-.146.317.034.428.326V16.5c-.1.317.069.471.394.471a.455.455,0,0,0,.463-.471V8.476A.406.406,0,0,0,21.379,8.15Z" transform="translate(1687.998 405.003)"/></g><g transform="translate(1104.381 301.109)"><g class="w" transform="translate(692 457.891)"><path class="aa" d="M0,0H374.619a0,0,0,0,1,0,0V52.891a6,6,0,0,1-6,6H0a0,0,0,0,1,0,0V0A0,0,0,0,1,0,0Z"/><path class="ac" d="M1,.5H373.619a.5.5,0,0,1,.5.5V52.891a5.5,5.5,0,0,1-5.5,5.5H1a.5.5,0,0,1-.5-.5V1A.5.5,0,0,1,1,.5Z"/></g><text class="x" transform="translate(852.31 492.891)"><tspan x="0" y="0">Cancel</tspan></text></g><g transform="translate(731 301.109)"><path class="y" d="M0,0H374.394a0,0,0,0,1,0,0V58.891a0,0,0,0,1,0,0H6a6,6,0,0,1-6-6V0A0,0,0,0,1,0,0Z" transform="translate(692 457.891)"/><text class="z" transform="translate(820.197 492.891)"><tspan x="0" y="0">Create website</tspan></text></g></g></svg>