<svg xmlns="http://www.w3.org/2000/svg" xmlns:xlink="http://www.w3.org/1999/xlink" width="748" height="392.832" viewBox="0 0 748 392.832"><defs><style>.a{fill:none;}.b,.c,.e{fill:#fff;}.d,.f{fill:#2a2e30;}.d{font-size:18px;font-family:-apple-system, BlinkMacSystemFont, "Segoe UI", Roboto, Oxygen, Ubuntu, Cantarell, "Fira Sans", "Droid Sans", "Helvetica Neue", Arial, sans-serif, "Apple Color Emoji", "Segoe UI Emoji", "Segoe UI Symbol";font-weight:600;}.e{stroke:#ddd;}.f{font-size:16px;font-family:-apple-system, BlinkMacSystemFont, "Segoe UI", Roboto, Oxygen, Ubuntu, Cantarell, "Fira Sans", "Droid Sans", "Helvetica Neue", Arial, sans-serif, "Apple Color Emoji", "Segoe UI Emoji", "Segoe UI Symbol";}.g,.n{fill:#707070;}.h{fill:#3d464e;font-size:14px;font-family:-apple-system, BlinkMacSystemFont, "Segoe UI", Roboto, Oxygen, Ubuntu, Cantarell, "Fira Sans", "Droid Sans", "Helvetica Neue", Arial, sans-serif, "Apple Color Emoji", "Segoe UI Emoji", "Segoe UI Symbol";font-style:italic;opacity:0.667;}.i{fill:#328ed8;}.j{clip-path:url(#a);}.k{fill:#333;}.l,.m,.n{stroke:none;}.m{fill:#ddd;}</style><clipPath id="a"><rect class="a" width="431" height="26"/></clipPath></defs><g transform="translate(-645 -813)"><g class="b" transform="translate(645 834)"><path class="l" d="M 747.5 371.3320007324219 L 414.3200988769531 371.3320007324219 L 0.5 371.3320007324219 L 0.5 0.5000156164169312 L 747.5 0.5000156164169312 L 747.5 371.3320007324219 Z"/><path class="m" d="M 1 1.000030517578125 L 1 370.8320007324219 L 414.3200988769531 370.8320007324219 L 747 370.8320007324219 L 747 1.000030517578125 L 1 1.000030517578125 M 0 3.0517578125e-05 L 748 3.0517578125e-05 L 748 371.8320007324219 L 414.3200988769531 371.8320007324219 L 0 371.8320007324219 L 0 3.0517578125e-05 Z"/></g><rect class="c" width="181" height="42" transform="translate(674 813)"/><text class="d" transform="translate(685 841)"><tspan x="0" y="0">Destination Server</tspan></text><g transform="translate(0 520)"><g class="e" transform="translate(847 353)"><rect class="l" width="116" height="43" rx="2"/><rect class="a" x="0.5" y="0.5" width="115" height="42" rx="1.5"/></g><g class="e" transform="translate(976 353)"><rect class="l" width="394" height="43" rx="2"/><rect class="a" x="0.5" y="0.5" width="393" height="42" rx="1.5"/></g><text class="f" transform="translate(685 380)"><tspan x="0" y="0">Domain</tspan></text><text class="f" transform="translate(865 380)"><tspan x="0" y="0">https://</tspan></text><text class="f" transform="translate(996 380)"><tspan x="0" y="0">gerdener-deer-78481.netlify.com</tspan></text><g class="g" transform="translate(934.107 371)"><path class="l" d="M 4.89288330078125 6.139761924743652 L 0.8644818663597107 0.5 L 8.921284675598145 0.5 L 4.89288330078125 6.139761924743652 Z"/><path class="n" d="M 1.836070537567139 1 L 4.89288330078125 5.279538154602051 L 7.949696063995361 1 L 1.836070537567139 1 M -0.10711669921875 0 L 9.89288330078125 0 L 4.89288330078125 7 L -0.10711669921875 0 Z"/></g></g><g transform="translate(0 582)"><g class="e" transform="translate(846 353)"><rect class="l" width="524" height="43" rx="2"/><rect class="a" x="0.5" y="0.5" width="523" height="42" rx="1.5"/></g><text class="f" transform="translate(685 380)"><tspan x="0" y="0">Protocol</tspan></text><text class="h" transform="translate(847 423)"><tspan x="0" y="0">Read how to </tspan><tspan class="i" y="0">configure Netlify website</tspan></text><text class="f" transform="translate(864 380)"><tspan x="0" y="0">Netlify</tspan></text><g class="g" transform="translate(1340 371)"><path class="l" d="M 5 6.139761924743652 L 0.9715985655784607 0.5 L 9.028401374816895 0.5 L 5 6.139761924743652 Z"/><path class="n" d="M 1.94318675994873 1 L 5 5.279538154602051 L 8.05681324005127 1 L 1.94318675994873 1 M 0 0 L 10 0 L 5 7 L 0 0 Z"/></g></g><g transform="translate(1 703)"><g class="e" transform="translate(846 353)"><rect class="l" width="524" height="43" rx="2"/><rect class="a" x="0.5" y="0.5" width="523" height="42" rx="1.5"/></g><text class="f" transform="translate(685 380)"><tspan x="0" y="0">Site ID</tspan></text><text class="f" transform="translate(862 380)"><tspan x="0" y="0">916fcad0-63ab-4fdd-b249-466c4edddad1</tspan></text></g><g transform="translate(0 765)"><g class="e" transform="translate(846 353)"><rect class="l" width="524" height="43" rx="2"/><rect class="a" x="0.5" y="0.5" width="523" height="42" rx="1.5"/></g><text class="f" transform="translate(685 380)"><tspan x="0" y="0">Netlify token</tspan></text><g class="j" transform="translate(862 372)"><g transform="translate(-863 -372)"><circle class="k" cx="2.5" cy="2.5" r="2.5" transform="translate(863 372)"/></g><g transform="translate(-854 -372)"><circle class="k" cx="2.5" cy="2.5" r="2.5" transform="translate(863 372)"/></g><g transform="translate(-845 -372)"><circle class="k" cx="2.5" cy="2.5" r="2.5" transform="translate(863 372)"/></g><g transform="translate(-836 -372)"><circle class="k" cx="2.5" cy="2.5" r="2.5" transform="translate(863 372)"/></g><g transform="translate(-827 -372)"><circle class="k" cx="2.5" cy="2.5" r="2.5" transform="translate(863 372)"/></g><g transform="translate(-818 -372)"><circle class="k" cx="2.5" cy="2.5" r="2.5" transform="translate(863 372)"/></g><g transform="translate(-809 -372)"><circle class="k" cx="2.5" cy="2.5" r="2.5" transform="translate(863 372)"/></g><g transform="translate(-800 -372)"><circle class="k" cx="2.5" cy="2.5" r="2.5" transform="translate(863 372)"/></g><g transform="translate(-791 -372)"><circle class="k" cx="2.5" cy="2.5" r="2.5" transform="translate(863 372)"/></g><g transform="translate(-782 -372)"><circle class="k" cx="2.5" cy="2.5" r="2.5" transform="translate(863 372)"/></g><g transform="translate(-773 -372)"><circle class="k" cx="2.5" cy="2.5" r="2.5" transform="translate(863 372)"/></g><g transform="translate(-764 -372)"><circle class="k" cx="2.5" cy="2.5" r="2.5" transform="translate(863 372)"/></g><g transform="translate(-755 -372)"><circle class="k" cx="2.5" cy="2.5" r="2.5" transform="translate(863 372)"/></g><g transform="translate(-746 -372)"><circle class="k" cx="2.5" cy="2.5" r="2.5" transform="translate(863 372)"/></g><g transform="translate(-737 -372)"><circle class="k" cx="2.5" cy="2.5" r="2.5" transform="translate(863 372)"/></g><g transform="translate(-728 -372)"><circle class="k" cx="2.5" cy="2.5" r="2.5" transform="translate(863 372)"/></g><g transform="translate(-719 -372)"><circle class="k" cx="2.5" cy="2.5" r="2.5" transform="translate(863 372)"/></g><g transform="translate(-710 -372)"><circle class="k" cx="2.5" cy="2.5" r="2.5" transform="translate(863 372)"/></g><g transform="translate(-701 -372)"><circle class="k" cx="2.5" cy="2.5" r="2.5" transform="translate(863 372)"/></g><g transform="translate(-692 -372)"><circle class="k" cx="2.5" cy="2.5" r="2.5" transform="translate(863 372)"/></g><g transform="translate(-683 -372)"><circle class="k" cx="2.5" cy="2.5" r="2.5" transform="translate(863 372)"/></g><g transform="translate(-674 -372)"><circle class="k" cx="2.5" cy="2.5" r="2.5" transform="translate(863 372)"/></g><g transform="translate(-665 -372)"><circle class="k" cx="2.5" cy="2.5" r="2.5" transform="translate(863 372)"/></g><g transform="translate(-656 -372)"><circle class="k" cx="2.5" cy="2.5" r="2.5" transform="translate(863 372)"/></g><g transform="translate(-647 -372)"><circle class="k" cx="2.5" cy="2.5" r="2.5" transform="translate(863 372)"/></g><g transform="translate(-638 -372)"><circle class="k" cx="2.5" cy="2.5" r="2.5" transform="translate(863 372)"/></g><g transform="translate(-629 -372)"><circle class="k" cx="2.5" cy="2.5" r="2.5" transform="translate(863 372)"/></g><g transform="translate(-620 -372)"><circle class="k" cx="2.5" cy="2.5" r="2.5" transform="translate(863 372)"/></g><g transform="translate(-611 -372)"><circle class="k" cx="2.5" cy="2.5" r="2.5" transform="translate(863 372)"/></g><g transform="translate(-602 -372)"><circle class="k" cx="2.5" cy="2.5" r="2.5" transform="translate(863 372)"/></g><g transform="translate(-593 -372)"><circle class="k" cx="2.5" cy="2.5" r="2.5" transform="translate(863 372)"/></g><g transform="translate(-584 -372)"><circle class="k" cx="2.5" cy="2.5" r="2.5" transform="translate(863 372)"/></g><g transform="translate(-575 -372)"><circle class="k" cx="2.5" cy="2.5" r="2.5" transform="translate(863 372)"/></g><g transform="translate(-566 -372)"><circle class="k" cx="2.5" cy="2.5" r="2.5" transform="translate(863 372)"/></g><g transform="translate(-557 -372)"><circle class="k" cx="2.5" cy="2.5" r="2.5" transform="translate(863 372)"/></g><g transform="translate(-548 -372)"><circle class="k" cx="2.5" cy="2.5" r="2.5" transform="translate(863 372)"/></g><g transform="translate(-539 -372)"><circle class="k" cx="2.5" cy="2.5" r="2.5" transform="translate(863 372)"/></g><g transform="translate(-530 -372)"><circle class="k" cx="2.5" cy="2.5" r="2.5" transform="translate(863 372)"/></g><g transform="translate(-521 -372)"><circle class="k" cx="2.5" cy="2.5" r="2.5" transform="translate(863 372)"/></g><g transform="translate(-512 -372)"><circle class="k" cx="2.5" cy="2.5" r="2.5" transform="translate(863 372)"/></g><g transform="translate(-503 -372)"><circle class="k" cx="2.5" cy="2.5" r="2.5" transform="translate(863 372)"/></g><g transform="translate(-494 -372)"><circle class="k" cx="2.5" cy="2.5" r="2.5" transform="translate(863 372)"/></g><g transform="translate(-485 -372)"><circle class="k" cx="2.5" cy="2.5" r="2.5" transform="translate(863 372)"/></g><g transform="translate(-476 -372)"><circle class="k" cx="2.5" cy="2.5" r="2.5" transform="translate(863 372)"/></g><g transform="translate(-467 -372)"><circle class="k" cx="2.5" cy="2.5" r="2.5" transform="translate(863 372)"/></g><g transform="translate(-458 -372)"><circle class="k" cx="2.5" cy="2.5" r="2.5" transform="translate(863 372)"/></g><g transform="translate(-449 -372)"><circle class="k" cx="2.5" cy="2.5" r="2.5" transform="translate(863 372)"/></g><g transform="translate(-440 -372)"><circle class="k" cx="2.5" cy="2.5" r="2.5" transform="translate(863 372)"/></g></g></g></g></svg>